<?xml version="1.0" encoding="UTF-8" standalone="no"?>
<svg
   version="1.1"
   viewBox="0 0 255.99999 255.99999"
   id="svg12"
   width="256"
   height="256"
   xmlns="http://www.w3.org/2000/svg"
   xmlns:svg="http://www.w3.org/2000/svg">
  <defs
     id="defs16" />
  <g
     id="g1810"
     style="stroke-width:2.00783;stroke-miterlimit:4;stroke-dasharray:none"
     transform="matrix(0.99610349,0,0,0.9960998,0.49876298,14.068489)">
    <path
       d="m 357.54763,6.4078157 c -0.0219,0.00556 -0.0438,0.011169 -0.0657,0.016858 -1.49308,0.016729 -2.96679,0.3402973 -4.32954,0.9506187 -0.16708,0.09526 -0.33161,0.1949301 -0.4934,0.2989077 -0.40778,0.242496 -0.79928,0.5113687 -1.17206,0.8049478 -0.58189,0.3137676 -1.13396,0.6798449 -1.64947,1.093744 L 312.03862,47.128173 c -2.04881,2.035655 -3.20519,4.801592 -3.21472,7.689963 l -0.17177,53.283964 c 0.0935,0.43756 0.21384,0.86889 0.36038,1.29163 0.12923,1.17767 0.44977,2.32634 0.94894,3.40081 0.0508,0.20506 0.10747,0.40867 0.17008,0.61042 l -19.12101,19.12102 c -4.25168,4.25297 -4.25168,11.14694 0,15.40018 l 26.42083,26.42085 c 4.25306,4.25224 11.14781,4.25224 15.40105,0 l 18.95331,-18.95418 c 0.11316,0.0331 0.22684,0.0637 0.34101,0.0926 1.48488,0.8049 3.13659,1.25343 4.82444,1.31016 0.0373,0.0105 0.0746,0.0202 0.11199,0.0307 l 53.28396,0.17173 c 1.85144,-0.0557 3.65801,-0.58298 5.24907,-1.53158 l 19.19645,19.1956 c 4.25324,4.25146 11.14738,4.25107 15.40019,-10e-4 l 26.42082,-26.42082 c 4.25169,-4.25298 4.25169,-11.14696 0,-15.4002 l -19.07013,-19.06985 c 0.9366,-1.57171 1.4622,-3.35405 1.5282,-5.18226 l 0.17173,-53.283963 c -0.0234,-0.13661 -0.0492,-0.27276 -0.0783,-0.408369 -0.0444,-1.076284 -0.24751,-2.140066 -0.60372,-3.156643 -0.10951,-0.31796 -0.23371,-0.630657 -0.37219,-0.937126 -0.45595,-1.026793 -1.068,-1.976851 -1.8145,-2.816463 -0.071,-0.09804 -0.14429,-0.194883 -0.21894,-0.290489 -0.0258,-0.03414 -0.0516,-0.06803 -0.0775,-0.101876 L 418.52228,9.793641 c -2.03587,-2.0490185 -4.80245,-3.2054013 -7.69083,-3.2147131 z"
       id="path71-4"
       style="fill:none;stroke:#ffffff;stroke-width:1.51147;stroke-miterlimit:4;stroke-dasharray:none"
       transform="matrix(1.328292,0,0,1.3285001,-381.81453,-8.0125437)" />
    <path
       d="m 357.10216,145.93402 -37.55571,-37.79842 0.17165,-53.283969 37.79842,-37.555711 53.28396,0.171674 37.55572,37.798422 -0.17165,53.283964 -37.79843,37.55571 z"
       id="path73-7"
       style="fill:none;stroke:#ffffff;stroke-width:1.51147;stroke-miterlimit:4;stroke-dasharray:none"
       transform="matrix(1.328292,0,0,1.3285001,-381.81453,-8.0125437)" />
    <path
       d="m 357.51645,17.298076 -12.79376,89.703294 12.37947,38.93524"
       id="path75-8"
       style="fill:none;stroke:#ffffff;stroke-width:1.51147;stroke-miterlimit:4;stroke-dasharray:none"
       transform="matrix(1.328292,0,0,1.3285001,-381.81453,-8.0125437)" />
    <path
       d="m 319.54731,108.13517 25.17625,-1.13682 -25.00467,-52.145856 64.02698,13.125703 -26.22726,-50.680121"
       stroke-linejoin="bevel"
       id="path77-4"
       style="fill:none;stroke:#ffffff;stroke-width:1.51147;stroke-miterlimit:4;stroke-dasharray:none"
       transform="matrix(1.328292,0,0,1.3285001,-381.81453,-8.0125437)" />
    <path
       d="m 410.79998,17.470516 11.96474,89.530854 -12.37946,39.10681"
       id="path79-0"
       style="fill:none;stroke:#ffffff;stroke-width:1.51147;stroke-miterlimit:4;stroke-dasharray:none"
       transform="matrix(1.328292,0,0,1.3285001,-381.81453,-8.0125437)" />
    <path
       d="M 448.18325,108.54903 422.7643,106.9978 448.35526,55.265789 383.74199,67.976774 410.79826,17.469093"
       stroke-linejoin="round"
       id="path81-0"
       style="fill:none;stroke:#ffffff;stroke-width:1.51147;stroke-miterlimit:4;stroke-dasharray:none"
       transform="matrix(1.328292,0,0,1.3285001,-381.81453,-8.0125437)" />
    <path
       d="m 383.74371,67.978197 -39.02102,39.021023 39.02102,39.02102 39.02101,-39.02102 z"
       stroke-linejoin="bevel"
       id="path83-6"
       style="fill:none;stroke:#ffffff;stroke-width:1.51147;stroke-miterlimit:4;stroke-dasharray:none"
       transform="matrix(1.328292,0,0,1.3285001,-381.81453,-8.0125437)" />
    <path
       d="m 383.74371,97.405088 -24.308,24.308012 24.308,24.30801 24.30801,-24.30801 z"
       stroke-linejoin="round"
       id="path85-2"
       style="fill:none;stroke:#ffffff;stroke-width:1.51147;stroke-miterlimit:4;stroke-dasharray:none"
       transform="matrix(1.328292,0,0,1.3285001,-381.81453,-8.0125437)" />
    <path
       d="m 325.13437,113.80414 26.37858,26.4635 -26.37858,26.37858 -26.42083,-26.42082 z"
       id="path87-4"
       style="fill:none;stroke:#ffffff;stroke-width:1.51147;stroke-miterlimit:4;stroke-dasharray:none"
       transform="matrix(1.328292,0,0,1.3285001,-381.81453,-8.0125437)" />
    <path
       d="m 442.53584,114.16195 26.37859,26.37814 -26.42083,26.42083 -26.42084,-26.42083 z"
       id="path89-7"
       style="fill:none;stroke:#ffffff;stroke-width:1.51147;stroke-miterlimit:4;stroke-dasharray:none"
       transform="matrix(1.328292,0,0,1.3285001,-381.81453,-8.0125437)" />
  </g>
</svg>
